<?xml version="1.0" standalone="no"?>
<!DOCTYPE svg PUBLIC "-//W3C//DTD SVG 20010904//EN"
 "http://www.w3.org/TR/2001/REC-SVG-20010904/DTD/svg10.dtd">
<svg version="1.0" xmlns="http://www.w3.org/2000/svg"
 width="512.000000pt" height="512.000000pt" viewBox="0 0 512.000000 512.000000"
 preserveAspectRatio="xMidYMid meet">
<metadata>
Created by potrace 1.14, written by Peter Selinger 2001-2017
</metadata>
<g transform="translate(0.000000,512.000000) scale(0.100000,-0.100000)"
fill="#000000" stroke="none">
<path d="M2889 4305 c-1 -3 -2 -8 -3 -12 -1 -5 -5 -17 -8 -28 -23 -72 -60
-197 -62 -207 -2 -7 -6 -20 -9 -28 -3 -8 -24 -80 -47 -160 -48 -165 -71 -241
-107 -355 -14 -44 -27 -89 -29 -100 -2 -11 -31 -110 -64 -220 -34 -110 -63
-209 -66 -220 -2 -11 -8 -31 -13 -45 -5 -14 -14 -45 -22 -70 -7 -25 -15 -49
-18 -55 -3 -5 -6 -14 -6 -20 0 -5 -5 -26 -12 -45 -6 -19 -39 -129 -73 -245
-34 -115 -68 -230 -77 -255 -8 -25 -17 -54 -19 -65 -2 -11 -20 -72 -39 -135
-20 -63 -38 -123 -40 -133 -9 -39 -17 -57 -25 -57 -5 0 -61 25 -125 55 -63 30
-119 55 -125 55 -5 0 -10 5 -10 12 0 6 -3 9 -6 5 -3 -3 -40 12 -82 33 -43 21
-111 54 -152 73 -141 65 -245 114 -350 164 -58 28 -136 65 -175 83 -38 18
-113 53 -165 78 -52 24 -146 69 -209 99 -67 31 -111 57 -105 62 5 5 83 47 174
92 91 46 166 87 168 92 2 4 10 7 18 7 7 0 28 8 46 18 18 11 209 108 423 217
215 109 395 202 401 206 7 6 15 4 22 -3 12 -15 48 -120 56 -162 7 -40 8 -137
2 -165 -12 -54 8 -5 55 135 28 82 53 156 56 164 12 33 114 326 117 335 1 6 13
42 26 80 13 39 25 72 25 75 1 3 4 12 8 20 17 43 57 162 57 171 0 5 -10 3 -23
-6 -13 -8 -27 -12 -30 -8 -4 3 -7 1 -7 -5 0 -7 -4 -12 -9 -12 -5 0 -72 -30
-148 -66 -76 -36 -169 -81 -208 -99 -38 -18 -122 -57 -185 -88 -322 -154 -393
-187 -401 -187 -5 0 -9 -5 -9 -12 0 -6 -3 -9 -6 -5 -3 3 -50 -17 -105 -44 -54
-27 -100 -49 -103 -49 -2 0 -86 -40 -187 -89 -101 -48 -218 -104 -259 -124
-41 -19 -140 -66 -220 -104 -80 -38 -182 -87 -228 -108 l-82 -39 2 -224 c3
-187 5 -226 18 -233 8 -5 130 -65 270 -133 140 -68 363 -176 495 -241 132 -65
330 -161 440 -215 480 -234 700 -342 704 -346 2 -2 -1 -16 -7 -31 -6 -15 -38
-122 -72 -238 -34 -115 -68 -227 -76 -248 -17 -46 -19 -45 111 -51 55 -3 100
-5 100 -6 0 -1 29 -2 65 -2 46 -1 69 -6 78 -17 11 -13 13 -13 9 -1 -3 11 4 15
29 16 28 0 31 -1 17 -12 -14 -10 -11 -12 23 -12 l39 -1 44 154 c24 85 43 157
42 160 -1 3 6 19 14 35 9 17 13 30 11 30 -3 0 2 19 10 43 9 23 17 50 19 61 3
10 12 44 21 75 9 31 16 56 15 56 0 0 7 23 15 50 9 28 24 79 34 115 43 155 130
452 134 459 3 4 7 19 10 34 2 14 16 64 30 110 21 69 132 450 140 482 1 6 8 28
14 50 6 22 11 42 11 45 0 3 9 31 20 63 11 31 18 57 15 57 -3 0 0 9 6 21 6 11
13 29 16 40 6 27 11 47 29 109 22 76 21 73 28 90 3 8 11 34 17 57 l11 42 52
-23 c29 -13 95 -44 147 -68 149 -71 220 -104 293 -137 129 -59 193 -89 292
-136 55 -26 156 -73 225 -105 69 -32 177 -82 240 -112 63 -30 138 -65 167 -78
29 -13 50 -27 47 -32 -3 -4 -10 -6 -15 -3 -5 4 -9 1 -9 -4 0 -6 -5 -11 -11
-11 -7 0 -44 -15 -83 -34 -39 -19 -106 -50 -148 -70 -43 -20 -113 -52 -155
-72 -43 -20 -112 -52 -153 -71 -41 -20 -109 -51 -150 -71 -41 -19 -111 -52
-155 -73 -44 -20 -114 -53 -155 -72 -41 -19 -115 -53 -163 -76 -48 -23 -92
-39 -98 -36 -24 15 -89 175 -77 188 2 2 -2 10 -8 18 -14 17 -16 149 -3 166 6
7 6 13 0 17 -5 3 -15 -11 -21 -31 -7 -21 -18 -44 -24 -52 -6 -8 -10 -17 -9
-20 2 -3 -5 -28 -14 -56 -9 -27 -18 -54 -19 -60 -1 -5 -41 -122 -89 -260 -47
-137 -87 -254 -89 -260 -7 -30 -99 -303 -107 -317 -5 -10 -7 -18 -5 -18 11 0
122 55 124 62 2 4 8 8 14 8 6 0 56 22 112 49 163 79 522 254 776 379 129 64
237 116 240 116 3 1 100 48 215 105 250 123 332 162 341 160 4 0 10 3 13 8 5
7 163 86 378 189 l83 39 0 180 0 180 -403 200 c-221 110 -410 206 -421 215
-10 8 -21 14 -25 14 -9 -3 -375 179 -382 189 -3 5 -10 9 -15 9 -14 1 -138 62
-145 71 -3 5 -9 8 -13 8 -10 -2 -221 103 -224 111 -2 5 -9 8 -15 8 -26 0 -242
119 -239 132 2 7 31 101 64 208 33 107 61 202 63 210 4 17 44 145 52 166 4 12
-33 14 -221 14 -124 0 -227 -2 -227 -5z"/>
</g>
</svg>
